<?xml version="1.0" standalone="no"?>
<!DOCTYPE svg PUBLIC "-//W3C//DTD SVG 20010904//EN"
 "http://www.w3.org/TR/2001/REC-SVG-20010904/DTD/svg10.dtd">
<svg version="1.0" xmlns="http://www.w3.org/2000/svg"
 width="798.000000pt" height="720.000000pt" viewBox="0 0 798.000000 720.000000"
 preserveAspectRatio="xMidYMid meet">

<g transform="translate(0.000000,720.000000) scale(0.100000,-0.100000)"
fill="#000000" stroke="none">
<path d="M5956 7180 c-162 -26 -343 -100 -483 -199 -78 -55 -113 -108 -113 -172 0 -24 -9 -40 -40 -68 -32 -29 -40 -44 -40 -70 0 -24 -11 -49 -39 -85 -22 -28 -43 -64 -47 -81 -3 -16 -17 -44 -31 -62 -14 -19 -23 -44 -21 -61 3 -41 -71 -171 -205 -357 -79 -109 -104 -132 -186 -166 -102 -42 -291 -137 -377 -189 -147 -90 -268 -187 -454 -364 -74 -71 -189 -174 -255 -229 -66 -55 -185 -166 -265 -246 -91 -92 -205 -193 -305 -270 -526 -408 -874 -723 -1163 -1054 -86 -99 -162 -189 -169 -201 -6 -11 -9 -32 -6 -47 3 -19 -10 -47 -54 -115 -111 -169 -163 -260 -163 -287 0 -15 4 -27 9 -27 17 0 57 39 121 119 36 44 67 80 70 81 12 1 -13 -187 -29 -225 -10 -22 -40 -69 -68 -105 -27 -36 -74 -103 -105 -150 -87 -135 -626 -658 -988 -959 -74 -62 -139 -119 -143 -127 -5 -9 -3 -24 7 -39 16 -24 14 -25 -167 -196 -100 -95 -187 -182 -194 -194 -9 -16 -9 -27 0 -46 18 -36 63 -36 138 0 35 17 65 28 67 26 2 -2 -24 -36 -59 -75 -35 -39 -66 -76 -68 -81 -2 -7 15 -10 48 -8 28 2 51 2 51 1 0 -2 -18 -25 -40 -50 -29 -32 -37 -49 -30 -56 13 -13 230 94 463 228 82 46 147 79 145 72 -2 -7 -167 -185 -368 -395 -201 -210 -369 -391 -375 -403 -7 -17 -4 -25 20 -45 39 -34 74 -27 188 37 50 27 92 48 94 47 2 -2 -3 -22 -11 -45 -13 -36 -13 -41 1 -46 27 -11 44 -6 130 34 120 56 160 53 128 -10 -22 -42 -16 -74 13 -78 31 -5 134 46 207 101 l60 46 3 -30 c2 -16 8 -29 13 -29 6 0 158 145 338 322 387 383 663 647 746 716 52 43 627 436 677 463 12 7 25 5 42 -6 23 -16 27 -14 144 74 126 95 155 111 202 111 15 0 67 14 114 31 78 29 91 31 126 20 88 -26 136 -93 155 -218 l14 -88 84 -80 c434 -415 639 -605 652 -605 28 0 15 -15 -44 -52 -33 -20 -70 -52 -84 -70 -80 -105 -72 -276 14 -341 29 -21 119 -36 119 -19 0 5 -14 39 -31 75 -17 38 -29 78 -27 94 l3 28 95 -3 c112 -3 129 -13 176 -92 35 -59 80 -90 131 -90 59 0 78 -14 101 -77 12 -32 39 -80 62 -106 51 -63 64 -110 55 -209 -7 -75 -6 -78 14 -78 40 0 91 140 91 248 0 63 -16 115 -44 149 -36 43 -79 134 -68 145 15 15 90 -8 126 -40 27 -24 47 -31 102 -37 37 -4 77 -11 89 -15 38 -14 75 -62 117 -151 23 -49 47 -89 54 -89 7 0 17 27 24 63 20 107 -9 209 -87 304 -32 40 -33 43 -13 43 49 0 111 -23 130 -49 42 -56 51 -61 113 -61 51 0 62 -4 88 -29 33 -34 36 -60 14 -144 -26 -101 -16 -124 28 -64 52 69 61 97 59 190 l-2 87 126 0 126 0 44 -36 c48 -39 38 -38 167 -18 51 8 82 -14 104 -76 10 -27 21 -50 24 -50 16 0 31 64 27 114 -5 58 -31 107 -74 139 -13 10 -73 28 -133 42 -60 13 -136 35 -170 49 -33 14 -78 26 -99 26 -102 0 -212 68 -269 169 -56 96 -91 136 -213 234 -223 180 -576 541 -597 611 -13 43 -2 79 21 70 8 -3 30 9 49 25 55 49 119 73 172 65 42 -6 47 -4 76 29 59 66 119 152 160 229 32 60 55 87 98 120 31 23 117 102 192 175 87 84 144 133 158 133 23 0 203 173 326 315 163 186 265 339 384 570 65 128 128 220 150 220 18 0 113 158 130 215 17 60 71 157 140 255 67 94 77 115 96 207 8 38 32 104 52 146 l37 77 0 200 c1 253 -3 271 -135 735 -56 195 -42 289 65 450 81 121 196 258 230 274 70 33 298 120 513 196 403 143 413 148 413 196 0 41 -63 117 -143 170 -127 85 -159 92 -647 139 -413 39 -470 50 -624 115 -50 21 -127 46 -171 55 -95 19 -336 28 -419 15z m-1640 -5463 c22 -12 467 -415 600 -544 80 -76 176 -216 172 -247 -8 -59 -182 -10 -354 100 -103 66 -160 87 -216 81 -28 -4 -70 -18 -95 -33 -44 -25 -46 -26 -63 -8 -32 35 -286 329 -306 356 -21 27 -21 28 -5 120 l17 93 84 47 c87 49 127 57 166 35z m268 -766 c25 -26 26 -30 11 -45 -17 -17 -28 -14 -69 19 -19 14 -19 15 -1 35 23 26 26 25 59 -9z" style="fill: rgb(1, 122, 255);"/>
</g>
</svg>